PathFileType	4	(X/Y/Z)	C:/Users/opensim2020/Desktop/walking_exp_matlab/subject06_walking19_straight_01.trc	
DataRate	CameraRate	NumFrames	NumMarkers	Units	OrigDataRate	OrigDataStartFrame	OrigNumFrames	
100.00	100.00	5	49	mm	100.00	1097	472	
Frame#	Time	LFHD			RFHD			LBHD			RBHD			C7			T10			CLAV			STRN			RBAK			LSHO			LUPA			LELB			LFRM			LWRA			LWRB			LFIN			RSHO			RUPA			RELB			RFRM			RWRA			RWRB			RFIN			LASI			RASI			LPSI			RPSI			LTHI			LKNE			LTIB			LANK			LHEE			LTOE			RTHI			RKNE			RTIB			RANK			RHEE			RTOE			*39			*40			*41			*42			*43			*44			*45			*46			*47			*48			
		X1	Y1	Z1	X2	Y2	Z2	X3	Y3	Z3	X4	Y4	Z4	X5	Y5	Z5	X6	Y6	Z6	X7	Y7	Z7	X8	Y8	Z8	X9	Y9	Z9	X10	Y10	Z10	X11	Y11	Z11	X12	Y12	Z12	X13	Y13	Z13	X14	Y14	Z14	X15	Y15	Z15	X16	Y16	Z16	X17	Y17	Z17	X18	Y18	Z18	X19	Y19	Z19	X20	Y20	Z20	X21	Y21	Z21	X22	Y22	Z22	X23	Y23	Z23	X24	Y24	Z24	X25	Y25	Z25	X26	Y26	Z26	X27	Y27	Z27	X28	Y28	Z28	X29	Y29	Z29	X30	Y30	Z30	X31	Y31	Z31	X32	Y32	Z32	X33	Y33	Z33	X34	Y34	Z34	X35	Y35	Z35	X36	Y36	Z36	X37	Y37	Z37	X38	Y38	Z38	X39	Y39	Z39	X40	Y40	Z40	X41	Y41	Z41	X42	Y42	Z42	X43	Y43	Z43	X44	Y44	Z44	X45	Y45	Z45	X46	Y46	Z46	X47	Y47	Z47	X48	Y48	Z48	X49	Y49	Z49	

237	2.360	1434.28320	2.61562	1685.45703	1564.85864	6.52778	1668.27087	1434.13257	-127.15057	1623.40381	1563.20605	-122.11765	1611.51196	1480.66333	-121.52210	1468.80530	1473.10388	-159.67154	1142.14856	1479.27307	-12.87244	1390.96680	1465.35193	24.45410	1213.89380	1553.48108	-194.87119	1295.57800	1317.99854	-63.13612	1428.95837	1240.87646	-58.38047	1227.64478	1227.47876	-55.91669	1115.48511	1203.48840	-14.54401	971.02545	1245.39966	57.56648	863.71332	1204.84851	0.76462	852.21484	1205.40637	52.70052	777.30042	1639.85449	-56.96199	1417.34460	1721.48059	-85.58039	1214.98083	1726.97913	-69.71957	1092.90955	1737.65747	-47.48532	973.93744	1696.68701	15.99833	839.27277	1739.63940	-34.54672	836.44092	1737.86475	7.05922	763.31824	1355.50354	9.03185	978.19751	1576.06213	7.94350	976.22168	1383.29407	-149.59230	1011.35364	1552.19482	-143.44730	1012.39911	1296.55554	-42.27552	662.32208	1321.01526	-27.72648	499.66779	1334.56519	-150.56622	277.63507	1375.45764	-214.03650	117.37006	1426.81946	-250.80307	111.54047	1356.93799	-89.84007	51.38600	1625.14294	-54.51268	645.46454	1598.58606	-48.93665	520.94873	1594.75586	-97.13876	257.80515	1542.54297	-106.05921	71.66187	1499.32202	-146.60124	47.65901	1524.98169	50.62430	38.09150	1497.44336	-98.46232	1714.90710																											 
238	2.370	1434.73853	7.39944	1685.27820	1565.33997	11.50415	1668.13599	1434.78918	-122.45524	1623.31091	1563.82593	-117.17890	1611.47986	1481.26050	-116.74007	1468.61169	1474.06458	-155.24040	1142.06079	1479.79626	-8.18016	1390.88135	1465.87805	28.99058	1213.81433	1554.67969	-190.28136	1295.62451	1318.51123	-58.92575	1428.79626	1241.36438	-55.27736	1227.43469	1227.83044	-53.54891	1115.30310	1203.47595	-13.04924	970.65338	1244.74023	59.00834	863.08722	1204.62305	1.81813	851.82050	1204.77881	53.24767	776.64185	1640.46521	-51.72324	1417.24719	1722.41626	-79.99924	1214.94397	1728.18396	-63.84119	1092.95911	1738.68726	-41.28321	974.04816	1697.41309	22.65320	839.70593	1740.59497	-27.75890	836.65356	1738.62415	14.10351	763.70343	1356.50989	13.81466	978.24292	1576.96667	12.35531	976.06427	1384.16272	-145.03145	1011.23389	1553.08875	-139.21568	1012.30402	1296.72485	-36.26274	662.62024	1321.41309	-20.16611	499.98529	1335.31165	-136.71255	274.47324	1376.21997	-194.65895	112.23367	1427.97400	-230.64011	105.06380	1356.33069	-68.65353	50.30005	1625.82813	-51.43913	645.24475	1599.40820	-46.96881	520.58881	1595.09192	-96.56479	257.77664	1542.60889	-106.09417	71.65657	1499.32336	-146.56245	47.65092	1525.21948	50.29974	38.00718	1497.98425	-93.53718	1714.82617																											 
239	2.380	1435.15649	12.19679	1685.08594	1565.64771	16.23984	1667.95850	1435.33862	-117.57594	1623.14600	1564.40906	-112.32800	1611.39722	1482.11963	-112.17675	1468.68701	1474.95520	-150.66118	1141.88098	1480.27588	-3.53652	1390.75635	1466.40161	33.50182	1213.66528	1555.75659	-185.38826	1295.58630	1319.07202	-54.73753	1428.54553	1241.72253	-52.20883	1227.21826	1228.12280	-51.23379	1115.06372	1203.44910	-11.54793	970.23785	1244.14221	60.02532	862.25623	1204.54504	2.41757	851.40948	1204.13416	53.71507	775.87628	1641.00769	-46.47004	1417.12830	1723.31189	-74.49409	1214.93152	1729.19629	-58.22937	1092.92493	1739.69397	-35.21724	974.14764	1698.13074	29.10364	840.15363	1741.67651	-21.13425	836.89264	1739.47058	21.16483	764.10681	1357.49329	18.55619	978.18152	1577.95740	16.81354	975.93109	1384.97290	-140.48529	1011.07697	1553.87866	-134.62720	1012.05908	1296.82495	-30.17827	662.71460	1321.68054	-12.64339	500.21210	1335.89502	-122.75208	271.45493	1376.79663	-175.01575	107.29353	1428.86719	-210.28236	98.93022	1355.41357	-47.12325	49.48323	1626.59595	-48.20872	645.00891	1600.17627	-45.00402	520.25427	1595.37439	-95.97295	257.68976	1542.62354	-106.08897	71.67422	1499.22778	-146.39417	47.49672	1525.22729	50.56121	38.03433	1498.51404	-88.60472	1714.70422																											 
240	2.390	1435.53271	17.04412	1684.86292	1566.03955	21.18696	1667.73486	1435.85681	-112.75428	1622.92957	1564.91309	-107.44173	1611.27588	1482.79004	-107.48039	1468.57703	1475.84668	-146.28761	1141.79309	1480.61682	1.07372	1390.54150	1466.88635	37.99950	1213.47668	1556.81348	-180.60611	1295.59888	1319.53918	-50.47821	1428.30872	1242.02368	-49.09889	1226.98926	1228.45447	-48.89996	1114.81689	1203.44910	-10.12275	969.81897	1243.55164	61.43546	861.55634	1204.36072	3.42886	850.90723	1203.53406	54.08157	775.16711	1641.49597	-41.22892	1416.99072	1724.28394	-68.91985	1214.89465	1730.19287	-52.63541	1092.94556	1740.59680	-29.17789	974.23090	1698.76563	35.46418	840.51678	1742.37769	-14.48597	836.99512	1740.18457	28.16311	764.53314	1358.43359	23.27642	978.14069	1578.93970	21.31318	975.75916	1385.80396	-135.90112	1010.82379	1554.70435	-130.35150	1011.84479	1296.81616	-24.23071	662.79663	1321.78845	-5.20580	500.45676	1336.31299	-108.43109	268.47867	1377.14832	-154.93336	102.57938	1429.54919	-189.56161	93.03128	1354.37988	-25.51168	48.83015	1626.93774	-45.39380	644.88983	1600.86682	-43.06403	519.92432	1595.60925	-95.33797	257.62881	1542.61755	-106.03955	71.69366	1499.16357	-146.38364	47.61824	1525.33765	50.58548	38.02528	1498.97900	-83.74649	1714.54932																											 
241	2.400	1435.82617	21.82512	1684.54285	1566.43677	26.31251	1667.48242	1436.39221	-107.98610	1622.75146	1565.40125	-102.49518	1611.11938	1483.32800	-102.91820	1468.42896	1476.61292	-141.61238	1141.63208	1480.94946	5.74384	1390.30615	1467.26489	42.46204	1213.23572	1557.74451	-175.76677	1295.55249	1319.99451	-46.27937	1427.99768	1242.32422	-45.97677	1226.74585	1228.69922	-46.44370	1114.59460	1203.35205	-8.39195	969.37634	1243.05237	62.67003	860.74255	1204.23901	4.20530	850.40936	1202.97632	54.75546	774.46649	1641.93164	-36.03382	1416.86536	1725.06824	-63.43396	1214.85974	1731.12769	-47.08010	1092.91748	1741.49512	-23.25117	974.31622	1699.29468	41.66538	840.88519	1743.27502	-8.11251	837.23291	1741.07349	34.97886	765.01569	1359.43176	27.91941	978.00574	1579.91064	25.82765	975.62848	1386.59460	-131.28648	1010.51501	1555.47290	-125.65946	1011.54547	1296.78162	-18.24138	662.90094	1321.85864	2.03185	500.59610	1336.56750	-94.11219	265.62079	1377.29736	-134.72786	98.15869	1429.88464	-168.30331	87.38050	1353.46606	-3.72959	48.38167	1627.41650	-42.41831	644.71442	1601.52979	-41.13212	519.64581	1595.69739	-94.90809	257.68076	1542.57373	-106.00995	71.72433	1499.01074	-146.10440	47.60689	1525.52710	50.30337	37.91737	1499.42688	-78.85815	1714.34448																											 
